<?xml version="1.0" standalone="yes"?>

<svg version="1.1" viewBox="0.0 0.0 355.33858267716533 323.251968503937" fill="none" stroke="none" stroke-linecap="square" stroke-miterlimit="10" xmlns="http://www.w3.org/2000/svg" xmlns:xlink="http://www.w3.org/1999/xlink"><clipPath id="p.0"><path d="m0 0l355.3386 0l0 323.25198l-355.3386 0l0 -323.25198z" clip-rule="nonzero"></path></clipPath><g clip-path="url(#p.0)"><path fill="#000000" fill-opacity="0.0" d="m0 0l355.3386 0l0 323.25198l-355.3386 0z" fill-rule="nonzero"></path><path fill="#ffffff" d="m1.6981627 54.623116l0 0c0 -29.455778 23.878624 -53.3344 53.3344 -53.3344l245.3312 0c14.145142 0 27.710968 5.619144 37.713104 15.6212845c10.002136 10.00214 15.621277 23.567953 15.621277 37.71312l0 213.3312c0 29.45578 -23.878601 53.33441 -53.33438 53.33441l-245.3312 0c-29.455776 0 -53.3344 -23.878632 -53.3344 -53.33441z" fill-rule="nonzero"></path><path stroke="#000000" stroke-width="4.0" stroke-linejoin="round" stroke-linecap="butt" d="m1.6981627 54.623116l0 0c0 -29.455778 23.878624 -53.3344 53.3344 -53.3344l245.3312 0c14.145142 0 27.710968 5.619144 37.713104 15.6212845c10.002136 10.00214 15.621277 23.567953 15.621277 37.71312l0 213.3312c0 29.45578 -23.878601 53.33441 -53.33438 53.33441l-245.3312 0c-29.455776 0 -53.3344 -23.878632 -53.3344 -53.33441z" fill-rule="nonzero"></path><path fill="#000000" d="m57.698162 65.28871l0 0c0 -13.254833 10.745167 -23.999996 24.000004 -23.999996l0 0c6.365196 0 12.469688 2.5285645 16.970558 7.029434c4.5008774 4.5008736 7.029442 10.60537 7.029442 16.970562l0 0c0 13.254837 -10.745171 24.0 -24.0 24.0l0 0c-13.254837 0 -24.000004 -10.745163 -24.000004 -24.0z" fill-rule="nonzero"></path><path stroke="#000000" stroke-width="1.0" stroke-linejoin="round" stroke-linecap="butt" d="m57.698162 65.28871l0 0c0 -13.254833 10.745167 -23.999996 24.000004 -23.999996l0 0c6.365196 0 12.469688 2.5285645 16.970558 7.029434c4.5008774 4.5008736 7.029442 10.60537 7.029442 16.970562l0 0c0 13.254837 -10.745171 24.0 -24.0 24.0l0 0c-13.254837 0 -24.000004 -10.745163 -24.000004 -24.0z" fill-rule="nonzero"></path><path fill="#000000" d="m57.698162 249.28871l0 0c0 -13.254837 10.745167 -24.0 24.000004 -24.0l0 0c6.365196 0 12.469688 2.5285645 16.970558 7.029434c4.5008774 4.500885 7.029442 10.605377 7.029442 16.970566l0 0c0 13.254837 -10.745171 24.000015 -24.0 24.000015l0 0c-13.254837 0 -24.000004 -10.745178 -24.000004 -24.000015z" fill-rule="nonzero"></path><path stroke="#000000" stroke-width="1.0" stroke-linejoin="round" stroke-linecap="butt" d="m57.698162 249.28871l0 0c0 -13.254837 10.745167 -24.0 24.000004 -24.0l0 0c6.365196 0 12.469688 2.5285645 16.970558 7.029434c4.5008774 4.500885 7.029442 10.605377 7.029442 16.970566l0 0c0 13.254837 -10.745171 24.000015 -24.0 24.000015l0 0c-13.254837 0 -24.000004 -10.745178 -24.000004 -24.000015z" fill-rule="nonzero"></path><path fill="#000000" d="m57.698162 161.28871l0 0c0 -13.254837 10.745167 -24.0 24.000004 -24.0l0 0c6.365196 0 12.469688 2.5285645 16.970558 7.029434c4.5008774 4.500885 7.029442 10.605377 7.029442 16.970566l0 0c0 13.254837 -10.745171 24.0 -24.0 24.0l0 0c-13.254837 0 -24.000004 -10.745163 -24.000004 -24.0z" fill-rule="nonzero"></path><path stroke="#000000" stroke-width="1.0" stroke-linejoin="round" stroke-linecap="butt" d="m57.698162 161.28871l0 0c0 -13.254837 10.745167 -24.0 24.000004 -24.0l0 0c6.365196 0 12.469688 2.5285645 16.970558 7.029434c4.5008774 4.500885 7.029442 10.605377 7.029442 16.970566l0 0c0 13.254837 -10.745171 24.0 -24.0 24.0l0 0c-13.254837 0 -24.000004 -10.745163 -24.000004 -24.0z" fill-rule="nonzero"></path><path fill="#000000" d="m249.69817 249.28871l0 0c0 -13.254837 10.745163 -24.0 23.999985 -24.0l0 0c6.365204 0 12.469696 2.5285645 16.970581 7.029434c4.5008545 4.500885 7.029419 10.605377 7.029419 16.970566l0 0c0 13.254837 -10.745148 24.000015 -24.0 24.000015l0 0c-13.254822 0 -23.999985 -10.745178 -23.999985 -24.000015z" fill-rule="nonzero"></path><path stroke="#000000" stroke-width="1.0" stroke-linejoin="round" stroke-linecap="butt" d="m249.69817 249.28871l0 0c0 -13.254837 10.745163 -24.0 23.999985 -24.0l0 0c6.365204 0 12.469696 2.5285645 16.970581 7.029434c4.5008545 4.500885 7.029419 10.605377 7.029419 16.970566l0 0c0 13.254837 -10.745148 24.000015 -24.0 24.000015l0 0c-13.254822 0 -23.999985 -10.745178 -23.999985 -24.000015z" fill-rule="nonzero"></path><path fill="#000000" d="m249.69817 161.28871l0 0c0 -13.254837 10.745163 -24.0 23.999985 -24.0l0 0c6.365204 0 12.469696 2.5285645 16.970581 7.029434c4.5008545 4.500885 7.029419 10.605377 7.029419 16.970566l0 0c0 13.254837 -10.745148 24.0 -24.0 24.0l0 0c-13.254822 0 -23.999985 -10.745163 -23.999985 -24.0z" fill-rule="nonzero"></path><path stroke="#000000" stroke-width="1.0" stroke-linejoin="round" stroke-linecap="butt" d="m249.69817 161.28871l0 0c0 -13.254837 10.745163 -24.0 23.999985 -24.0l0 0c6.365204 0 12.469696 2.5285645 16.970581 7.029434c4.5008545 4.500885 7.029419 10.605377 7.029419 16.970566l0 0c0 13.254837 -10.745148 24.0 -24.0 24.0l0 0c-13.254822 0 -23.999985 -10.745163 -23.999985 -24.0z" fill-rule="nonzero"></path><path fill="#000000" d="m249.69817 65.28871l0 0c0 -13.254833 10.745163 -23.999996 23.999985 -23.999996l0 0c6.365204 0 12.469696 2.5285645 16.970581 7.029434c4.5008545 4.5008736 7.029419 10.60537 7.029419 16.970562l0 0c0 13.254837 -10.745148 24.0 -24.0 24.0l0 0c-13.254822 0 -23.999985 -10.745163 -23.999985 -24.0z" fill-rule="nonzero"></path><path stroke="#000000" stroke-width="1.0" stroke-linejoin="round" stroke-linecap="butt" d="m249.69817 65.28871l0 0c0 -13.254833 10.745163 -23.999996 23.999985 -23.999996l0 0c6.365204 0 12.469696 2.5285645 16.970581 7.029434c4.5008545 4.5008736 7.029419 10.60537 7.029419 16.970562l0 0c0 13.254837 -10.745148 24.0 -24.0 24.0l0 0c-13.254822 0 -23.999985 -10.745163 -23.999985 -24.0z" fill-rule="nonzero"></path></g></svg>

