<?xml version="1.0" standalone="yes"?>

<svg version="1.1" viewBox="0.0 0.0 355.68241469816275 323.66141732283467" fill="none" stroke="none" stroke-linecap="square" stroke-miterlimit="10" xmlns="http://www.w3.org/2000/svg" xmlns:xlink="http://www.w3.org/1999/xlink"><clipPath id="p.0"><path d="m0 0l355.6824 0l0 323.6614l-355.6824 0l0 -323.6614z" clip-rule="nonzero"></path></clipPath><g clip-path="url(#p.0)"><path fill="#000000" fill-opacity="0.0" d="m0 0l355.6824 0l0 323.6614l-355.6824 0z" fill-rule="nonzero"></path><path fill="#ffffff" d="m1.488189 55.313404l0 0c0 -29.455778 23.878624 -53.3344 53.3344 -53.3344l245.33119 0c14.145172 0 27.710999 5.619144 37.713135 15.621284c10.002136 10.00214 15.621277 23.567953 15.621277 37.71312l0 213.33119c0 29.45578 -23.878632 53.33441 -53.33441 53.33441l-245.33119 0c-29.455776 0 -53.3344 -23.878632 -53.3344 -53.33441z" fill-rule="nonzero"></path><path stroke="#000000" stroke-width="4.0" stroke-linejoin="round" stroke-linecap="butt" d="m1.488189 55.313404l0 0c0 -29.455778 23.878624 -53.3344 53.3344 -53.3344l245.33119 0c14.145172 0 27.710999 5.619144 37.713135 15.621284c10.002136 10.00214 15.621277 23.567953 15.621277 37.71312l0 213.33119c0 29.45578 -23.878632 53.33441 -53.33441 53.33441l-245.33119 0c-29.455776 0 -53.3344 -23.878632 -53.3344 -53.33441z" fill-rule="nonzero"></path><path fill="#000000" d="m153.48819 153.979l0 0c0 -13.254837 10.745163 -24.0 24.0 -24.0l0 0c6.3651886 0 12.469696 2.5285645 16.970566 7.029434c4.5008698 4.5008698 7.029434 10.605362 7.029434 16.970566l0 0c0 13.254837 -10.745163 24.0 -24.0 24.0l0 0c-13.254837 0 -24.0 -10.745163 -24.0 -24.0z" fill-rule="nonzero"></path><path stroke="#000000" stroke-width="1.0" stroke-linejoin="round" stroke-linecap="butt" d="m153.48819 153.979l0 0c0 -13.254837 10.745163 -24.0 24.0 -24.0l0 0c6.3651886 0 12.469696 2.5285645 16.970566 7.029434c4.5008698 4.5008698 7.029434 10.605362 7.029434 16.970566l0 0c0 13.254837 -10.745163 24.0 -24.0 24.0l0 0c-13.254837 0 -24.0 -10.745163 -24.0 -24.0z" fill-rule="nonzero"></path></g></svg>

