<?xml version="1.0" standalone="yes"?>

<svg version="1.1" viewBox="0.0 0.0 356.0839895013123 324.1102362204724" fill="none" stroke="none" stroke-linecap="square" stroke-miterlimit="10" xmlns="http://www.w3.org/2000/svg" xmlns:xlink="http://www.w3.org/1999/xlink"><clipPath id="p.0"><path d="m0 0l356.08398 0l0 324.11023l-356.08398 0l0 -324.11023z" clip-rule="nonzero"></path></clipPath><g clip-path="url(#p.0)"><path fill="#000000" fill-opacity="0.0" d="m0 0l356.08398 0l0 324.11023l-356.08398 0z" fill-rule="nonzero"></path><path fill="#ffffff" d="m1.5131234 54.85146l0 0c0 -29.455774 23.878626 -53.3344 53.3344 -53.3344l245.33119 0c14.145172 0 27.710999 5.619144 37.713135 15.621284c10.002136 10.00214 15.621277 23.567955 15.621277 37.713116l0 213.33119c0 29.45578 -23.878632 53.33441 -53.33441 53.33441l-245.33119 0c-29.455774 0 -53.3344 -23.878632 -53.3344 -53.33441z" fill-rule="nonzero"></path><path stroke="#000000" stroke-width="4.0" stroke-linejoin="round" stroke-linecap="butt" d="m1.5131234 54.85146l0 0c0 -29.455774 23.878626 -53.3344 53.3344 -53.3344l245.33119 0c14.145172 0 27.710999 5.619144 37.713135 15.621284c10.002136 10.00214 15.621277 23.567955 15.621277 37.713116l0 213.33119c0 29.45578 -23.878632 53.33441 -53.33441 53.33441l-245.33119 0c-29.455774 0 -53.3344 -23.878632 -53.3344 -53.33441z" fill-rule="nonzero"></path><path fill="#000000" d="m57.513123 65.51706l0 0c0 -13.254833 10.745171 -24.0 24.0 -24.0l0 0c6.365196 0 12.469688 2.5285645 16.970566 7.029438c4.5008698 4.5008736 7.029434 10.605366 7.029434 16.970562l0 0c0 13.254837 -10.745163 24.0 -24.0 24.0l0 0c-13.254829 0 -24.0 -10.745163 -24.0 -24.0z" fill-rule="nonzero"></path><path stroke="#000000" stroke-width="1.0" stroke-linejoin="round" stroke-linecap="butt" d="m57.513123 65.51706l0 0c0 -13.254833 10.745171 -24.0 24.0 -24.0l0 0c6.365196 0 12.469688 2.5285645 16.970566 7.029438c4.5008698 4.5008736 7.029434 10.605366 7.029434 16.970562l0 0c0 13.254837 -10.745163 24.0 -24.0 24.0l0 0c-13.254829 0 -24.0 -10.745163 -24.0 -24.0z" fill-rule="nonzero"></path><path fill="#000000" d="m57.513123 249.51706l0 0c0 -13.254837 10.745171 -24.0 24.0 -24.0l0 0c6.365196 0 12.469688 2.5285645 16.970566 7.029434c4.5008698 4.5008698 7.029434 10.605377 7.029434 16.970566l0 0c0 13.254822 -10.745163 24.0 -24.0 24.0l0 0c-13.254829 0 -24.0 -10.745178 -24.0 -24.0z" fill-rule="nonzero"></path><path stroke="#000000" stroke-width="1.0" stroke-linejoin="round" stroke-linecap="butt" d="m57.513123 249.51706l0 0c0 -13.254837 10.745171 -24.0 24.0 -24.0l0 0c6.365196 0 12.469688 2.5285645 16.970566 7.029434c4.5008698 4.5008698 7.029434 10.605377 7.029434 16.970566l0 0c0 13.254822 -10.745163 24.0 -24.0 24.0l0 0c-13.254829 0 -24.0 -10.745178 -24.0 -24.0z" fill-rule="nonzero"></path><path fill="#000000" d="m153.51312 161.51706l0 0c0 -13.254837 10.745163 -24.0 24.0 -24.0l0 0c6.365204 0 12.469696 2.5285645 16.970566 7.029434c4.5008698 4.5008698 7.029434 10.605377 7.029434 16.970566l0 0c0 13.254837 -10.745163 24.0 -24.0 24.0l0 0c-13.254837 0 -24.0 -10.745163 -24.0 -24.0z" fill-rule="nonzero"></path><path stroke="#000000" stroke-width="1.0" stroke-linejoin="round" stroke-linecap="butt" d="m153.51312 161.51706l0 0c0 -13.254837 10.745163 -24.0 24.0 -24.0l0 0c6.365204 0 12.469696 2.5285645 16.970566 7.029434c4.5008698 4.5008698 7.029434 10.605377 7.029434 16.970566l0 0c0 13.254837 -10.745163 24.0 -24.0 24.0l0 0c-13.254837 0 -24.0 -10.745163 -24.0 -24.0z" fill-rule="nonzero"></path><path fill="#000000" d="m249.51312 249.51706l0 0c0 -13.254837 10.745178 -24.0 24.0 -24.0l0 0c6.365204 0 12.469696 2.5285645 16.97055 7.029434c4.500885 4.5008698 7.0294495 10.605377 7.0294495 16.970566l0 0c0 13.254822 -10.745178 24.0 -24.0 24.0l0 0c-13.254822 0 -24.0 -10.745178 -24.0 -24.0z" fill-rule="nonzero"></path><path stroke="#000000" stroke-width="1.0" stroke-linejoin="round" stroke-linecap="butt" d="m249.51312 249.51706l0 0c0 -13.254837 10.745178 -24.0 24.0 -24.0l0 0c6.365204 0 12.469696 2.5285645 16.97055 7.029434c4.500885 4.5008698 7.0294495 10.605377 7.0294495 16.970566l0 0c0 13.254822 -10.745178 24.0 -24.0 24.0l0 0c-13.254822 0 -24.0 -10.745178 -24.0 -24.0z" fill-rule="nonzero"></path><path fill="#000000" d="m249.51312 65.51706l0 0c0 -13.254833 10.745178 -24.0 24.0 -24.0l0 0c6.365204 0 12.469696 2.5285645 16.97055 7.029438c4.500885 4.5008736 7.0294495 10.605366 7.0294495 16.970562l0 0c0 13.254837 -10.745178 24.0 -24.0 24.0l0 0c-13.254822 0 -24.0 -10.745163 -24.0 -24.0z" fill-rule="nonzero"></path><path stroke="#000000" stroke-width="1.0" stroke-linejoin="round" stroke-linecap="butt" d="m249.51312 65.51706l0 0c0 -13.254833 10.745178 -24.0 24.0 -24.0l0 0c6.365204 0 12.469696 2.5285645 16.97055 7.029438c4.500885 4.5008736 7.0294495 10.605366 7.0294495 16.970562l0 0c0 13.254837 -10.745178 24.0 -24.0 24.0l0 0c-13.254822 0 -24.0 -10.745163 -24.0 -24.0z" fill-rule="nonzero"></path></g></svg>

