<?xml version="1.0" standalone="yes"?>

<svg version="1.1" viewBox="0.0 0.0 357.00787401574803 324.498687664042" fill="none" stroke="none" stroke-linecap="square" stroke-miterlimit="10" xmlns="http://www.w3.org/2000/svg" xmlns:xlink="http://www.w3.org/1999/xlink"><clipPath id="p.0"><path d="m0 0l357.00787 0l0 324.4987l-357.00787 0l0 -324.4987z" clip-rule="nonzero"></path></clipPath><g clip-path="url(#p.0)"><path fill="#000000" fill-opacity="0.0" d="m0 0l357.00787 0l0 324.4987l-357.00787 0z" fill-rule="nonzero"></path><path fill="#ffffff" d="m2.4776902 55.31603l0 0c0 -29.455776 23.878624 -53.3344 53.3344 -53.3344l245.33119 0c14.145172 0 27.710999 5.6191435 37.713135 15.621284c10.002136 10.00214 15.621277 23.567953 15.621277 37.71312l0 213.33119c0 29.45578 -23.878632 53.33441 -53.33441 53.33441l-245.33119 0c-29.455778 0 -53.3344 -23.878632 -53.3344 -53.33441z" fill-rule="nonzero"></path><path stroke="#000000" stroke-width="4.0" stroke-linejoin="round" stroke-linecap="butt" d="m2.4776902 55.31603l0 0c0 -29.455776 23.878624 -53.3344 53.3344 -53.3344l245.33119 0c14.145172 0 27.710999 5.6191435 37.713135 15.621284c10.002136 10.00214 15.621277 23.567953 15.621277 37.71312l0 213.33119c0 29.45578 -23.878632 53.33441 -53.33441 53.33441l-245.33119 0c-29.455778 0 -53.3344 -23.878632 -53.3344 -53.33441z" fill-rule="nonzero"></path><path fill="#000000" d="m58.47769 65.98163l0 0c0 -13.254833 10.745163 -24.0 24.0 -24.0l0 0c6.365196 0 12.469688 2.5285645 16.970558 7.029438c4.5008774 4.5008698 7.029442 10.605366 7.029442 16.970562l0 0c0 13.254829 -10.745171 24.0 -24.0 24.0l0 0c-13.254837 0 -24.0 -10.745171 -24.0 -24.0z" fill-rule="nonzero"></path><path stroke="#000000" stroke-width="1.0" stroke-linejoin="round" stroke-linecap="butt" d="m58.47769 65.98163l0 0c0 -13.254833 10.745163 -24.0 24.0 -24.0l0 0c6.365196 0 12.469688 2.5285645 16.970558 7.029438c4.5008774 4.5008698 7.029442 10.605366 7.029442 16.970562l0 0c0 13.254829 -10.745171 24.0 -24.0 24.0l0 0c-13.254837 0 -24.0 -10.745171 -24.0 -24.0z" fill-rule="nonzero"></path><path fill="#000000" d="m58.47769 249.98163l0 0c0 -13.254837 10.745163 -24.0 24.0 -24.0l0 0c6.365196 0 12.469688 2.5285645 16.970558 7.029434c4.5008774 4.5008698 7.029442 10.605362 7.029442 16.970566l0 0c0 13.254822 -10.745171 24.0 -24.0 24.0l0 0c-13.254837 0 -24.0 -10.745178 -24.0 -24.0z" fill-rule="nonzero"></path><path stroke="#000000" stroke-width="1.0" stroke-linejoin="round" stroke-linecap="butt" d="m58.47769 249.98163l0 0c0 -13.254837 10.745163 -24.0 24.0 -24.0l0 0c6.365196 0 12.469688 2.5285645 16.970558 7.029434c4.5008774 4.5008698 7.029442 10.605362 7.029442 16.970566l0 0c0 13.254822 -10.745171 24.0 -24.0 24.0l0 0c-13.254837 0 -24.0 -10.745178 -24.0 -24.0z" fill-rule="nonzero"></path><path fill="#000000" d="m250.47769 249.98163l0 0c0 -13.254837 10.745178 -24.0 24.0 -24.0l0 0c6.365204 0 12.469696 2.5285645 16.97055 7.029434c4.500885 4.5008698 7.0294495 10.605362 7.0294495 16.970566l0 0c0 13.254822 -10.745178 24.0 -24.0 24.0l0 0c-13.254822 0 -24.0 -10.745178 -24.0 -24.0z" fill-rule="nonzero"></path><path stroke="#000000" stroke-width="1.0" stroke-linejoin="round" stroke-linecap="butt" d="m250.47769 249.98163l0 0c0 -13.254837 10.745178 -24.0 24.0 -24.0l0 0c6.365204 0 12.469696 2.5285645 16.97055 7.029434c4.500885 4.5008698 7.0294495 10.605362 7.0294495 16.970566l0 0c0 13.254822 -10.745178 24.0 -24.0 24.0l0 0c-13.254822 0 -24.0 -10.745178 -24.0 -24.0z" fill-rule="nonzero"></path><path fill="#000000" d="m250.47769 65.98163l0 0c0 -13.254833 10.745178 -24.0 24.0 -24.0l0 0c6.365204 0 12.469696 2.5285645 16.97055 7.029438c4.500885 4.5008698 7.0294495 10.605366 7.0294495 16.970562l0 0c0 13.254829 -10.745178 24.0 -24.0 24.0l0 0c-13.254822 0 -24.0 -10.745171 -24.0 -24.0z" fill-rule="nonzero"></path><path stroke="#000000" stroke-width="1.0" stroke-linejoin="round" stroke-linecap="butt" d="m250.47769 65.98163l0 0c0 -13.254833 10.745178 -24.0 24.0 -24.0l0 0c6.365204 0 12.469696 2.5285645 16.97055 7.029438c4.500885 4.5008698 7.0294495 10.605366 7.0294495 16.970562l0 0c0 13.254829 -10.745178 24.0 -24.0 24.0l0 0c-13.254822 0 -24.0 -10.745171 -24.0 -24.0z" fill-rule="nonzero"></path></g></svg>

